<?xml version="1.0" standalone="no"?><!DOCTYPE svg PUBLIC "-//W3C//DTD SVG 1.1//EN" "http://www.w3.org/Graphics/SVG/1.1/DTD/svg11.dtd"><svg t="1766303907181" class="icon" viewBox="0 0 1024 1024" version="1.1" xmlns="http://www.w3.org/2000/svg" p-id="2367" xmlns:xlink="http://www.w3.org/1999/xlink" width="200" height="200"><path d="M640 932H256c-90.44 0-164-73.56-164-164v-96a36 36 0 0 1 36-36h32c33.08 0 60-26.92 60-60s-26.92-60-60-60h-32a36 36 0 0 1-36-36V384c0-90.44 73.56-164 164-164h60.04c2.12-70.96 60.48-128 131.96-128s129.8 57.04 131.96 128H640c90.44 0 164 73.56 164 164v60.08c70.96 2.12 128 60.48 128 131.92s-57.04 129.84-128 131.92V768c0 90.44-73.56 164-164 164zM164 707.92V768c0 50.72 41.28 92 92 92h384c50.72 0 92-41.28 92-92v-96a36 36 0 0 1 36-36h32c33.08 0 60-26.92 60-60s-26.92-60-60-60h-32a36 36 0 0 1-36-36V384c0-50.72-41.28-92-92-92h-96a36 36 0 0 1-36-36v-32c0-33.08-26.92-60-60-60s-60 26.92-60 60v32a36 36 0 0 1-36 36H256c-50.72 0-92 41.28-92 92v60.08c70.96 2.12 128 60.48 128 131.92s-57.04 129.84-128 131.92z" p-id="2368" fill="#e6e6e6"></path></svg>