<?xml version="1.0" standalone="no"?><!DOCTYPE svg PUBLIC "-//W3C//DTD SVG 1.1//EN" "http://www.w3.org/Graphics/SVG/1.1/DTD/svg11.dtd"><svg t="1766304233284" class="icon" viewBox="0 0 1024 1024" version="1.1" xmlns="http://www.w3.org/2000/svg" p-id="10914" xmlns:xlink="http://www.w3.org/1999/xlink" width="200" height="200"><path d="M266.6496 282.624c0-71.5264 24.6784-132.608 74.0352-183.0912C390.2464 48.8448 450.2016 23.4496 520.5504 23.4496c70.5024 0 130.4576 25.4976 179.9168 76.4416 49.3056 50.7904 73.9328 112.4352 73.9328 184.9344 0 71.5776-24.6784 132.608-74.0352 183.0912-49.5104 50.688-109.4656 76.0832-179.8144 76.0832-70.5024 0-130.5088-25.4976-179.9168-76.4416C291.328 416.768 266.6496 355.1232 266.6496 282.624z m64 0c0 55.1936 18.6368 101.9904 55.9104 140.3904 36.864 37.9904 81.5104 56.9856 133.9904 56.9856 52.3776 0 97.0752-18.944 134.0416-56.832 37.2224-38.0416 55.808-84.1728 55.808-138.3424 0-55.1936-18.6368-101.9904-55.8592-140.3392-36.864-38.0416-81.5616-57.0368-133.9904-57.0368s-97.0752 18.944-134.0928 56.832c-37.1712 38.0928-55.808 84.1728-55.808 138.3424z m-209.408 711.5264a78.592 78.592 0 0 1-78.592-78.592c0-153.9584 110.1824-287.0272 263.7824-298.0352a2875.2384 2875.2384 0 0 1 411.136 0c153.6 11.008 263.7824 144.0768 263.7824 298.0352 0 43.4176-35.1744 78.592-78.592 78.592H121.2416z m781.5168-64c9.728 0 14.592-4.864 14.592-14.592 0-62.0544-19.5584-115.6608-58.6752-160.7168-38.912-44.8512-87.4496-69.3248-145.664-73.5232a2810.3168 2810.3168 0 0 0-402.0224 0c-58.2144 4.1984-106.8032 28.672-145.664 73.5232-39.1168 45.056-58.6752 98.6624-58.6752 160.768 0 9.6768 4.864 14.5408 14.592 14.5408h781.5168z" p-id="10915" fill="#515151"></path></svg>