<?xml version="1.0" standalone="no"?><!DOCTYPE svg PUBLIC "-//W3C//DTD SVG 1.1//EN" "http://www.w3.org/Graphics/SVG/1.1/DTD/svg11.dtd"><svg t="1766304188772" class="icon" viewBox="0 0 1024 1024" version="1.1" xmlns="http://www.w3.org/2000/svg" p-id="8762" xmlns:xlink="http://www.w3.org/1999/xlink" width="200" height="200"><path d="M519.488 518.4a41.6 41.6 0 1 0 0-83.2 41.6 41.6 0 0 0 0 83.2zM690.112 518.4a41.6 41.6 0 1 0 0-83.2 41.6 41.6 0 0 0 0 83.2zM348.8 518.4a41.6 41.6 0 1 0 0-83.2 41.6 41.6 0 0 0 0 83.2z" fill="#515151" p-id="8763"></path><path d="M780.096 160H232.512c-31.104 0-60.928 11.712-82.944 32.576A108.288 108.288 0 0 0 115.2 271.168v555.776c0 6.592 1.92 12.992 5.376 18.688a38.144 38.144 0 0 0 14.592 13.568 40.768 40.768 0 0 0 39.04-0.384l175.68-100.8a40.832 40.832 0 0 1 21.504-5.12h408.704c31.104 0 60.992-11.776 82.944-32.64 22.016-20.8 34.368-49.088 34.368-78.592v-370.56c0-29.44-12.352-57.728-34.368-78.528A120.704 120.704 0 0 0 780.16 160z m39.104 481.664c0 9.856-4.096 19.264-11.456 26.24a40.256 40.256 0 0 1-27.648 10.88H371.392a122.24 122.24 0 0 0-60.608 15.872l-117.376 66.688v-490.24c0-9.792 4.16-19.2 11.52-26.176a40.256 40.256 0 0 1 27.584-10.88h547.584c10.368 0 20.352 3.968 27.648 10.88a36.096 36.096 0 0 1 11.456 26.24v370.56z" fill="#515151" p-id="8764"></path></svg>